# xmcd
#
# Track frame offsets:
#   150
#   1324
#   9255
#   18462
#   29324
#   40486
#   58119
#   70643
#   78780
#   87088
#   102835
#   119393
#   127814
#   150318
#   165136
#   187626
#
# Disc length: 2589 seconds
#
# Revision: 0
# Processed by: cddbd v1.5.1PL2 Copyright (c) Steve Scherf et al.
# Submitted via: GXTranscoder 2.0.1939
#
DISCID=a30a1b10
DTITLE=2 - 1
DYEAR=2005
DGENRE=Rock
TTITLE0=x6uxx
TTITLE1=yyyyy
TTITLE2=dfg
TTITLE3=dg
TTITLE4=zu
TTITLE5=oizol
TTITLE6=uol
TTITLE7=uto
TTITLE8=lr
TTITLE9=zi
TTITLE10=5d
TTITLE11=6u
TTITLE12=5r6u
TTITLE13=s
TTITLE14=uz
TTITLE15=d5
EXTD=
EXTT0=
EXTT1=
EXTT2=
EXTT3=
EXTT4=
EXTT5=
EXTT6=
EXTT7=
EXTT8=
EXTT9=
EXTT10=
EXTT11=
EXTT12=
EXTT13=
EXTT14=
EXTT15=
PLAYORDER=
